<?xml version="1.0" encoding="UTF-8" standalone="no"?>
<!-- Generator: Adobe Illustrator 22.1.0, SVG Export Plug-In . SVG Version: 6.00 Build 0)  -->

<svg
   xmlns:dc="http://purl.org/dc/elements/1.1/"
   xmlns:cc="http://creativecommons.org/ns#"
   xmlns:rdf="http://www.w3.org/1999/02/22-rdf-syntax-ns#"
   xmlns:svg="http://www.w3.org/2000/svg"
   xmlns="http://www.w3.org/2000/svg"
   xmlns:sodipodi="http://sodipodi.sourceforge.net/DTD/sodipodi-0.dtd"
   xmlns:inkscape="http://www.inkscape.org/namespaces/inkscape"
   version="1.1"
   id="Layer_1"
   x="0px"
   y="0px"
   viewBox="0 0 173.5 121.4"
   style="enable-background:new 0 0 173.5 121.4;"
   xml:space="preserve"
   sodipodi:docname="logo_white.svg"
   inkscape:version="0.92.2 (5c3e80d, 2017-08-06)"><metadata
     id="metadata1034"><rdf:RDF><cc:Work
         rdf:about=""><dc:format>image/svg+xml</dc:format><dc:type
           rdf:resource="http://purl.org/dc/dcmitype/StillImage" /><dc:title></dc:title></cc:Work></rdf:RDF></metadata><defs
     id="defs1032" /><sodipodi:namedview
     pagecolor="#ffffff"
     bordercolor="#666666"
     borderopacity="1"
     objecttolerance="10"
     gridtolerance="10"
     guidetolerance="10"
     inkscape:pageopacity="0"
     inkscape:pageshadow="2"
     inkscape:window-width="1920"
     inkscape:window-height="1056"
     id="namedview1030"
     showgrid="false"
     inkscape:zoom="6.8369027"
     inkscape:cx="86.75"
     inkscape:cy="60.700001"
     inkscape:window-x="0"
     inkscape:window-y="24"
     inkscape:window-maximized="1"
     inkscape:current-layer="Layer_1" /><style
     type="text/css"
     id="style997">
	.st0{fill:#020203;}
</style><g
     id="g1027"
     style="fill:#ffffff"><g
       id="g1025"
       style="fill:#ffffff"><g
         id="g1023"
         style="fill:#ffffff"><g
           id="g1013"
           style="fill:#ffffff"><path
             class="st0"
             d="M34.7,5.1v10.6H17.1v11.6h13.5V38H17.1v22.2H6.4v-55H34.7z"
             id="path999"
             style="fill:#ffffff" /><path
             class="st0"
             d="M50.9,5.1v44.4h17.6v10.6H40.2v-55H50.9z"
             id="path1001"
             style="fill:#ffffff" /><path
             class="st0"
             d="M104.2,9.6c3.7,3.7,5.6,8.2,5.6,13.4v1.9c0,5.2-1.9,9.7-5.6,13.4c-3.7,3.7-8.2,5.5-13.4,5.5      c-5.2,0-9.7-1.8-13.4-5.5c-3.7-3.7-5.6-8.2-5.6-13.4V23c0-5.2,1.9-9.7,5.6-13.4C81.2,5.8,85.6,4,90.8,4      C96.1,4,100.5,5.8,104.2,9.6z M85,17.1c-1.6,1.6-2.5,3.6-2.5,5.9v1.9c0,2.3,0.8,4.3,2.5,5.9c1.6,1.6,3.6,2.4,5.9,2.4      c2.3,0,4.3-0.8,5.9-2.4c1.6-1.6,2.5-3.6,2.5-5.9V23c0-2.3-0.8-4.2-2.5-5.9c-1.6-1.6-3.6-2.4-5.9-2.4      C88.5,14.7,86.6,15.5,85,17.1z"
             id="path1003"
             style="fill:#ffffff" /><path
             class="st0"
             d="M167.8,5.1l-14.2,55h-7.9l-5.9-22.8l-5.9,22.8h-7.9l-14.2-55h11l7.2,27.7l7.2-27.7h5.2l7.2,27.7l7.2-27.7      H167.8z"
             id="path1005"
             style="fill:#ffffff" /><path
             class="st0"
             d="M16.9,79.7c-1.4,1.4-2.1,3.1-2.1,5v16.5c0,1.9,0.7,3.6,2.1,5c1.4,1.4,3.1,2.1,5,2.1c2.7,0,4.9-1.4,6.5-4.2      l7.9,4.5c-3.4,5.8-8.2,8.8-14.4,8.8c-4.4,0-8.2-1.6-11.4-4.8c-3.2-3.2-4.8-7-4.8-11.4V84.7c0-4.4,1.6-8.2,4.8-11.4      c3.2-3.2,7-4.8,11.4-4.8c6.2,0,11,2.9,14.4,8.8l-7.9,4.5c-1.6-2.8-3.8-4.2-6.5-4.2C19.9,77.7,18.3,78.4,16.9,79.7z"
             id="path1007"
             style="fill:#ffffff" /><path
             class="st0"
             d="M57.4,69.5c3.9,0,7.2,1.4,9.9,4.1c2.7,2.7,4.1,6,4.1,9.9c0,3.6-1.2,6.7-3.7,9.4c2.5,2.7,3.7,5.8,3.7,9.5      c0,3.8-1.4,7.1-4.1,9.9c-2.7,2.7-6,4.1-9.9,4.1H40.1V69.5H57.4z M49.2,78.6v9.9h8.2c1.3,0,2.5-0.5,3.5-1.4c1-1,1.4-2.1,1.4-3.5      c0-1.4-0.5-2.5-1.4-3.5c-1-1-2.1-1.5-3.5-1.5H49.2z M49.2,97.5v9.9h8.2c1.3,0,2.5-0.5,3.5-1.4c1-1,1.4-2.1,1.4-3.5      c0-1.4-0.5-2.5-1.4-3.5c-1-1-2.1-1.4-3.5-1.4H49.2z"
             id="path1009"
             style="fill:#ffffff" /><path
             class="st0"
             d="M93.2,69.5c4.3,0,8,1.5,11.1,4.6c3.1,3.1,4.6,6.8,4.6,11.1v16c0,4.2-1.5,7.7-4.5,10.7      c-3,3-6.6,4.5-10.8,4.5H77.5V69.5H93.2z M86.6,78.6v28.8h7.1c1.7,0,3.1-0.6,4.3-1.8c1.2-1.2,1.8-2.6,1.8-4.3v-16      c0-1.8-0.6-3.4-1.9-4.7c-1.3-1.3-2.9-2-4.7-2H86.6z"
             id="path1011"
             style="fill:#ffffff" /></g><g
           id="g1017"
           style="fill:#ffffff"><path
             class="st0"
             d="M101.6,59.4c-1.7,0-3.3-0.6-4.6-1.7c-0.5-0.4-1.1-0.4-1.5,0c-1.3,1.1-2.9,1.7-4.6,1.7      c-1.7,0-3.3-0.6-4.6-1.7c-0.5-0.4-1.1-0.4-1.5,0c-1.3,1.1-2.9,1.7-4.6,1.7c-1.7,0-3.4-0.6-4.6-1.8c-0.7-0.6-0.7-1.6-0.1-2.2      c0.6-0.7,1.6-0.7,2.2-0.1c0.7,0.6,1.6,1,2.5,1c0.9,0,1.8-0.3,2.5-0.9c1.7-1.5,4.1-1.5,5.7,0c0.7,0.6,1.6,0.9,2.5,0.9      c0.9,0,1.8-0.3,2.5-0.9c1.7-1.5,4.1-1.5,5.7,0c0.7,0.6,1.6,0.9,2.5,0.9c0.9,0,1.8-0.3,2.5-1c0.7-0.6,1.7-0.5,2.2,0.1      c0.6,0.7,0.5,1.7-0.1,2.2C104.9,58.8,103.3,59.4,101.6,59.4z"
             id="path1015"
             style="fill:#ffffff" /></g><g
           id="g1021"
           style="fill:#ffffff"><path
             class="st0"
             d="M101.6,53.2c-1.7,0-3.3-0.6-4.6-1.7c-0.5-0.4-1.1-0.4-1.5,0c-1.3,1.1-2.9,1.7-4.6,1.7      c-1.7,0-3.3-0.6-4.6-1.7c-0.5-0.4-1.1-0.4-1.5,0c-1.3,1.1-2.9,1.7-4.6,1.7c-1.7,0-3.4-0.6-4.6-1.8c-0.7-0.6-0.7-1.6-0.1-2.2      c0.6-0.7,1.6-0.7,2.2-0.1c0.7,0.6,1.6,1,2.5,1c0.9,0,1.8-0.3,2.5-0.9c1.7-1.5,4.1-1.5,5.7,0c0.7,0.6,1.6,0.9,2.5,0.9      c0.9,0,1.8-0.3,2.5-0.9c1.7-1.5,4.1-1.5,5.7,0c0.7,0.6,1.6,0.9,2.5,0.9c0.9,0,1.8-0.3,2.5-1c0.7-0.6,1.7-0.5,2.2,0.1      c0.6,0.7,0.5,1.7-0.1,2.2C104.9,52.5,103.3,53.2,101.6,53.2z"
             id="path1019"
             style="fill:#ffffff" /></g></g></g></g></svg>